<svg version="1.1" viewBox="0.0 0.0 479.49343832021 482.5196850393701" fill="none" stroke="none" stroke-linecap="square" stroke-miterlimit="10" xmlns:xlink="http://www.w3.org/1999/xlink" xmlns="http://www.w3.org/2000/svg"><clipPath id="p.0"><path d="m0 0l479.49344 0l0 482.51968l-479.49344 0l0 -482.51968z" clip-rule="nonzero"/></clipPath><g clip-path="url(#p.0)"><path fill="#000000" fill-opacity="0.0" d="m0 0l479.49344 0l0 482.51968l-479.49344 0z" fill-rule="evenodd"/><defs><linearGradient id="p.1" gradientUnits="userSpaceOnUse" gradientTransform="matrix(21.966370223901 0.0 0.0 21.966370223901 0.0 0.0)" spreadMethod="pad" x1="2.860497134461499E-10" y1="-7.901947089927657E-5" x2="-7.951775573197918E-5" y2="21.96629120428617"><stop offset="0.0" stop-color="#4a86e8"/><stop offset="1.0" stop-color="#0b5394"/></linearGradient></defs><path fill="url(#p.1)" d="m0 79.91761l0 0c0 -44.13728 35.78033 -79.91761 79.91761 -79.91761l319.66086 0l0 0c21.195465 0 41.522827 8.419867 56.510284 23.407326c14.987457 14.987457 23.407318 35.314816 23.407318 56.510284l0 322.68448c0 44.137268 -35.780334 79.9176 -79.9176 79.9176l-319.66086 0l0 0c-44.13728 0 -79.91761 -35.780334 -79.91761 -79.9176z" fill-rule="evenodd"/><path fill="#000000" fill-opacity="0.0" d="m49.354332 241.25984l0 0c0 -104.11655 85.242165 -188.51968 190.3937 -188.51968l0 0c50.49556 0 98.92293 19.86184 134.62868 55.216133c35.70575 35.3543 55.765015 83.305016 55.765015 133.30356l0 0c0 104.11656 -85.24216 188.5197 -190.39369 188.5197l0 0c-105.151535 0 -190.3937 -84.40314 -190.3937 -188.5197z" fill-rule="evenodd"/><path stroke="#ffffff" stroke-width="24.0" stroke-linejoin="round" stroke-linecap="butt" d="m49.354332 241.25984l0 0c0 -104.11655 85.242165 -188.51968 190.3937 -188.51968l0 0c50.49556 0 98.92293 19.86184 134.62868 55.216133c35.70575 35.3543 55.765015 83.305016 55.765015 133.30356l0 0c0 104.11656 -85.24216 188.5197 -190.39369 188.5197l0 0c-105.151535 0 -190.3937 -84.40314 -190.3937 -188.5197z" fill-rule="evenodd"/><path fill="#000000" fill-opacity="0.0" d="m169.1483 241.25984l0 0c0 -38.607742 31.607986 -69.90552 70.59842 -69.90552l0 0c18.723862 0 36.680862 7.365036 49.92064 20.474854c13.239746 13.109833 20.677795 30.890564 20.677795 49.430664l0 0c0 38.607742 -31.608002 69.9055 -70.598434 69.9055l0 0c-38.990433 0 -70.59842 -31.29776 -70.59842 -69.9055z" fill-rule="evenodd"/><path stroke="#ffffff" stroke-width="24.0" stroke-linejoin="round" stroke-linecap="butt" d="m169.1483 241.25984l0 0c0 -38.607742 31.607986 -69.90552 70.59842 -69.90552l0 0c18.723862 0 36.680862 7.365036 49.92064 20.474854c13.239746 13.109833 20.677795 30.890564 20.677795 49.430664l0 0c0 38.607742 -31.608002 69.9055 -70.598434 69.9055l0 0c-38.990433 0 -70.59842 -31.29776 -70.59842 -69.9055z" fill-rule="evenodd"/><path fill="#000000" fill-opacity="0.0" d="m284.71518 105.48275l0 0c18.823975 -0.15769196 36.93033 7.3380814 50.29605 20.821861c13.365723 13.48378 20.88379 31.838776 20.88379 50.986725l-70.59842 0z" fill-rule="evenodd"/><path fill="#000000" fill-opacity="0.0" d="m284.71518 105.48275l0 0c18.823975 -0.15769196 36.93033 7.3380814 50.29605 20.821861c13.365723 13.48378 20.88379 31.838776 20.88379 50.986725" fill-rule="evenodd"/><path stroke="#ffffff" stroke-width="24.0" stroke-linejoin="round" stroke-linecap="butt" d="m284.71518 105.48275l0 0c18.823975 -0.15769196 36.93033 7.3380814 50.29605 20.821861c13.365723 13.48378 20.88379 31.838776 20.88379 50.986725" fill-rule="evenodd"/></g></svg>