<svg version="1.1" viewBox="0.0 0.0 872.9291338582677 185.3018372703412" fill="none" stroke="none" stroke-linecap="square" stroke-miterlimit="10" xmlns:xlink="http://www.w3.org/1999/xlink" xmlns="http://www.w3.org/2000/svg"><clipPath id="p.0"><path d="m0 0l872.92914 0l0 185.30183l-872.92914 0l0 -185.30183z" clip-rule="nonzero"/></clipPath><g clip-path="url(#p.0)"><path fill="#000000" fill-opacity="0.0" d="m0 0l872.92914 0l0 185.30183l-872.92914 0z" fill-rule="evenodd"/><path fill="#ffffff" d="m0 0l872.9449 0l0 185.29134l-872.9449 0z" fill-rule="evenodd"/><path fill="#000000" fill-opacity="0.0" d="m-0.007874016 5.391076l872.9449 0l0 180.97636l-872.9449 0z" fill-rule="evenodd"/><path fill="#db4437" d="m196.43619 142.39108l-20.96875 0l-8.328125 -21.671883l-38.15625 0l-7.875 21.671883l-20.4375 0l37.171875 -95.43751l20.375 0l38.21875 95.43751zm-35.484375 -37.765633l-13.140625 -35.40625l-12.890625 35.40625l26.03125 0zm60.155106 37.765633l-34.109375 -95.43751l20.890625 0l24.15625 70.640625l23.375 -70.640625l20.437515 0l-34.17189 95.43751l-20.578125 0zm60.678818 -47.140633q0 -14.578125 4.359375 -24.46875q3.25 -7.296875 8.875 -13.078125q5.640625 -5.796875 12.34375 -8.609375q8.921875 -3.765625 20.578125 -3.765625q21.09375 0 33.75 13.09375q12.671875 13.078125 12.671875 36.375q0 23.109375 -12.578125 36.171883q-12.5625 13.046875 -33.578125 13.046875q-21.296875 0 -33.859375 -12.984375q-12.5625 -12.984383 -12.5625 -35.781258zm19.859375 -0.640625q0 16.203125 7.484375 24.578125q7.484375 8.359375 19.0 8.359375q11.53125 0 18.921875 -8.296875q7.390625 -8.296875 7.390625 -24.90625q0 -16.40625 -7.203125 -24.46875q-7.1875 -8.078125 -19.109375 -8.078125q-11.90625 0 -19.203125 8.171875q-7.28125 8.171875 -7.28125 24.640625zm148.81628 12.6875l18.6875 5.921875q-4.296875 15.625008 -14.296875 23.218758q-9.984375 7.578125 -25.359375 7.578125q-19.0 0 -31.25 -12.984375q-12.234375 -12.984383 -12.234375 -35.515633q0 -23.828125 12.296875 -37.0q12.3125 -13.1875 32.359375 -13.1875q17.515625 0 28.453125 10.34375q6.515625 6.125 9.765625 17.578125l-19.078125 4.5625q-1.6875 -7.421875 -7.0625 -11.71875q-5.359375 -4.296875 -13.046875 -4.296875q-10.609375 0 -17.21875 7.625q-6.609375 7.609375 -6.609375 24.65625q0 18.109375 6.5 25.796875q6.515625 7.671875 16.9375 7.671875q7.6875 0 13.21875 -4.875q5.53125 -4.890625 7.9375 -15.375zm121.28531 35.093758l-20.96875 0l-8.328125 -21.671883l-38.15625 0l-7.875 21.671883l-20.4375 0l37.171875 -95.43751l20.375 0l38.21875 95.43751zm-35.484375 -37.765633l-13.140625 -35.40625l-12.890625 35.40625l26.03125 0zm45.644714 -57.671875l35.21875 0q11.90625 0 18.15625 1.828125q8.40625 2.46875 14.390625 8.78125q5.984375 6.3125 9.109375 15.46875q3.125 9.140625 3.125 22.546875q0 11.78125 -2.921875 20.3125q-3.578125 10.421875 -10.21875 16.859383q-5.015625 4.890625 -13.546875 7.625q-6.375 2.015625 -17.0625 2.015625l-36.25 0l0 -95.43751zm19.265625 16.140625l0 63.21875l14.390625 0q8.0625 0 11.65625 -0.90625q4.6875 -1.171875 7.765625 -3.96875q3.09375 -2.8125 5.046875 -9.21875q1.953125 -6.421875 1.953125 -17.484375q0 -11.0625 -1.953125 -16.984375q-1.953125 -5.921875 -5.46875 -9.234375q-3.515625 -3.328125 -8.90625 -4.5q-4.046875 -0.921875 -15.828125 -0.921875l-8.65625 0zm73.1759 32.15625q0 -14.578125 4.359375 -24.46875q3.25 -7.296875 8.875 -13.078125q5.640625 -5.796875 12.34375 -8.609375q8.921875 -3.765625 20.578125 -3.765625q21.09375 0 33.75 13.09375q12.671875 13.078125 12.671875 36.375q0 23.109375 -12.578125 36.171883q-12.5625 13.046875 -33.578125 13.046875q-21.296875 0 -33.859375 -12.984375q-12.5625 -12.984383 -12.5625 -35.781258zm19.859375 -0.640625q0 16.203125 7.484375 24.578125q7.484375 8.359375 19.0 8.359375q11.53125 0 18.921875 -8.296875q7.390625 -8.296875 7.390625 -24.90625q0 -16.40625 -7.203125 -24.46875q-7.1875 -8.078125 -19.109375 -8.078125q-11.90625 0 -19.203125 8.171875q-7.28125 8.171875 -7.28125 24.640625z" fill-rule="nonzero"/><path fill="#ffffff" d="m0 55.53806l872.9449 0l0 11.748028l-872.9449 0z" fill-rule="evenodd"/><path fill="#ffffff" d="m-0.007874016 78.07087l872.9449 0l0 11.748032l-872.9449 0z" fill-rule="evenodd"/><path fill="#ffffff" d="m-0.007874016 100.603676l872.9449 0l0 11.748032l-872.9449 0z" fill-rule="evenodd"/><path fill="#ffffff" d="m-0.007874016 123.13648l872.9449 0l0 11.748039l-872.9449 0z" fill-rule="evenodd"/></g></svg>