<svg version="1.1" viewBox="0.0 0.0 479.49343832021 482.5196850393701" fill="none" stroke="none" stroke-linecap="square" stroke-miterlimit="10" xmlns:xlink="http://www.w3.org/1999/xlink" xmlns="http://www.w3.org/2000/svg"><clipPath id="p.0"><path d="m0 0l479.49344 0l0 482.51968l-479.49344 0l0 -482.51968z" clip-rule="nonzero"/></clipPath><g clip-path="url(#p.0)"><path fill="#000000" fill-opacity="0.0" d="m0 0l479.49344 0l0 482.51968l-479.49344 0z" fill-rule="evenodd"/><defs><linearGradient id="p.1" gradientUnits="userSpaceOnUse" gradientTransform="matrix(21.966370223901 0.0 0.0 21.966370223901 0.0 0.0)" spreadMethod="pad" x1="2.860497134461499E-10" y1="-7.901947089927657E-5" x2="-7.951775573197918E-5" y2="21.96629120428617"><stop offset="0.0" stop-color="#93c47d"/><stop offset="1.0" stop-color="#38761d"/></linearGradient></defs><path fill="url(#p.1)" d="m0 79.91761l0 0c0 -44.13728 35.78033 -79.91761 79.91761 -79.91761l319.66086 0l0 0c21.195465 0 41.522827 8.419867 56.510284 23.407326c14.987457 14.987457 23.407318 35.314816 23.407318 56.510284l0 322.68448c0 44.137268 -35.780334 79.9176 -79.9176 79.9176l-319.66086 0l0 0c-44.13728 0 -79.91761 -35.780334 -79.91761 -79.9176z" fill-rule="evenodd"/><path fill="#000000" fill-opacity="0.0" d="m188.51968 163.7874l0 0c0 -62.360336 53.669434 -112.91338 119.87402 -112.91338l0 0c31.792572 0 62.28299 11.896198 84.76373 33.071564c22.480743 21.17537 35.11029 49.895332 35.11029 79.84182l0 0c0 62.360336 -53.669434 112.913376 -119.87402 112.913376l0 0c-66.20459 0 -119.87402 -50.55304 -119.87402 -112.913376z" fill-rule="evenodd"/><path stroke="#ffffff" stroke-width="24.0" stroke-linejoin="round" stroke-linecap="butt" d="m188.51968 163.7874l0 0c0 -62.360336 53.669434 -112.91338 119.87402 -112.91338l0 0c31.792572 0 62.28299 11.896198 84.76373 33.071564c22.480743 21.17537 35.11029 49.895332 35.11029 79.84182l0 0c0 62.360336 -53.669434 112.913376 -119.87402 112.913376l0 0c-66.20459 0 -119.87402 -50.55304 -119.87402 -112.913376z" fill-rule="evenodd"/><path fill="#ffffff" d="m50.37272 395.98965l164.28348 -164.28345l21.259842 21.259842l-164.28348 164.28346z" fill-rule="evenodd"/></g></svg>