<svg version="1.1" viewBox="0.0 0.0 479.49343832021 482.5196850393701" fill="none" stroke="none" stroke-linecap="square" stroke-miterlimit="10" xmlns:xlink="http://www.w3.org/1999/xlink" xmlns="http://www.w3.org/2000/svg"><clipPath id="p.0"><path d="m0 0l479.49344 0l0 482.51968l-479.49344 0l0 -482.51968z" clip-rule="nonzero"/></clipPath><g clip-path="url(#p.0)"><path fill="#000000" fill-opacity="0.0" d="m0 0l479.49344 0l0 482.51968l-479.49344 0z" fill-rule="evenodd"/><defs><linearGradient id="p.1" gradientUnits="userSpaceOnUse" gradientTransform="matrix(21.966370223901 0.0 0.0 21.966370223901 0.0 0.0)" spreadMethod="pad" x1="2.860497134461499E-10" y1="-7.901947089927657E-5" x2="-7.951775573197918E-5" y2="21.96629120428617"><stop offset="0.0" stop-color="#db4437"/><stop offset="1.0" stop-color="#b22e23"/></linearGradient></defs><path fill="url(#p.1)" d="m0 79.91761l0 0c0 -44.13728 35.78033 -79.91761 79.91761 -79.91761l319.66086 0l0 0c21.195465 0 41.522827 8.419867 56.510284 23.407326c14.987457 14.987457 23.407318 35.314816 23.407318 56.510284l0 322.68448c0 44.137268 -35.780334 79.9176 -79.9176 79.9176l-319.66086 0l0 0c-44.13728 0 -79.91761 -35.780334 -79.91761 -79.9176z" fill-rule="evenodd"/><path fill="#000000" fill-opacity="0.0" d="m122.529686 159.31995l0 0c-1.3226318 -34.280098 20.263191 -66.47674 56.477715 -84.24012c36.214523 -17.763382 81.43553 -18.335793 118.3174 -1.4976654c36.881897 16.838127 59.698822 48.47271 59.698822 82.76954l-117.27559 0z" fill-rule="evenodd"/><path fill="#000000" fill-opacity="0.0" d="m122.529686 159.31995l0 0c-1.3226318 -34.280098 20.263191 -66.47674 56.477715 -84.24012c36.214523 -17.763382 81.43553 -18.335793 118.3174 -1.4976654c36.881897 16.838127 59.698822 48.47271 59.698822 82.76954" fill-rule="evenodd"/><path stroke="#ffffff" stroke-width="24.0" stroke-linejoin="round" stroke-linecap="butt" d="m122.529686 159.31995l0 0c-1.3226318 -34.280098 20.263191 -66.47674 56.477715 -84.24012c36.214523 -17.763382 81.43553 -18.335793 118.3174 -1.4976654c36.881897 16.838127 59.698822 48.47271 59.698822 82.76954" fill-rule="evenodd"/><path fill="#ffffff" d="m397.1015 417.42258l-314.70694 0c-11.540276 0 -22.607899 -4.5843506 -30.768112 -12.744568c-8.16021 -8.160217 -12.744568 -19.227844 -12.744568 -30.768127l0 -217.55818c0 -0.0018463135 0.001499176 -0.0033416748 0.0033493042 -0.0033416748l401.72894 0.0033416748l0 0c0.0018615723 0 0.0033569336 0.0015106201 0.0033569336 0.0033569336l-0.0033569336 217.55482l0 0c0 24.031403 -19.481293 43.512695 -43.512665 43.512695z" fill-rule="evenodd"/><defs><linearGradient id="p.2" gradientUnits="userSpaceOnUse" gradientTransform="matrix(-14.181185868809129 0.0 0.0 -14.181185868809129 0.0 0.0)" spreadMethod="pad" x1="-27.816694310309277" y1="-27.320664934347533" x2="-27.816746364416964" y2="-13.139479065633937"><stop offset="0.0" stop-color="#db4437"/><stop offset="1.0" stop-color="#b22e23"/></linearGradient></defs><path fill="url(#p.2)" d="m360.9534 387.43832l-242.41336 0c-8.88945 0 -17.414818 -3.531311 -23.700615 -9.817108c-6.2857895 -6.285797 -9.817116 -14.811157 -9.817116 -23.700623l0 -167.58464c0 -0.0014190674 0.001159668 -0.0025787354 0.0025787354 -0.0025787354l309.44623 0.0025787354l0 0c0.0014343262 0 0.0025634766 0.001159668 0.0025634766 0.0025787354l-0.0025634766 167.58206l0 0c0 18.511322 -15.006409 33.51773 -33.51773 33.51773z" fill-rule="evenodd"/></g></svg>